The colossus who conquered the world!
An epic film that follows the life of Alexander the Great, the macedonian king that united all ancient greek tribes and led them against the vast Persian Empire. Alexander conquered most of the then known world and created a greek empire that spanned all the way from the Balkans to India.


IMDB: http://www.imdb.com/title/tt0048937/

 
http://www.abload.de/img/covern35e.jpg
 
http://www.abload.de/img/poster331hs.jpg
 
http://www.abload.de/img/poster4q2so.jpg
 
http://www.abload.de/img/poster2p39c.jpg


General
Complete name                    : Alexander.The.Great.1956.DVDRip.XviD.AC3-SNS.avi
Format                           : AVI
Format/Info                      : Audio Video Interleave
File size                        : 1.46 GiB
Duration                         : 2h 10mn
Overall bit rate                 : 1 606 Kbps
Writing application              : VirtualDubMod 1.5.4.1 (build 2178/release)
Writing library                  : VirtualDubMod build 2178/release

Video
ID                               : 0
Format                           : MPEG-4 Visual
Format profile                   : Advanced Simple@L5
Format settings, BVOP            : Yes
Format settings, QPel            : No
Format settings, GMC             : No warppoints
Format settings, Matrix          : Custom
Codec ID                         : XVID
Codec ID/Hint                    : XviD
Duration                         : 2h 10mn
Bit rate                         : 1 407 Kbps
Width                            : 640 pixels
Height                           : 368 pixels
Display aspect ratio             : 16:9
Frame rate                       : 25.000 fps
Resolution                       : 8 bits
Colorimetry                      : 4:2:0
Scan type                        : Progressive
Bits/(Pixel*Frame)               : 0.239
Stream size                      : 1.28 GiB (88%)
Writing library                  : XviD 1.2.1 (UTC 2008-12-04)

Audio
ID                               : 1
Format                           : AC-3
Format/Info                      : Audio Coding 3
Format_Settings_ModeExtension    : CM (complete main)
Codec ID                         : 2000
Duration                         : 2h 10mn
Bit rate mode                    : Constant
Bit rate                         : 192 Kbps
Channel(s)                       : 2 channels
Channel positions                : Front: L R
Sampling rate                    : 48.0 KHz
Stream size                      : 179 MiB (12%)
Alignment                        : Aligned on interleaves
Interleave, duration             : 96 ms (2.40 video frames)
Interleave, preload duration     : 96 ms
Language                         : English

Source: DVD5, PAL, progressive
Source resolution: 720x576
Source aspect ratio: 16:9
